<svg width="223" height="30" viewBox="0 0 223 30" fill="none" xmlns="http://www.w3.org/2000/svg">
<path d="M45.9703 7.46622L46.1297 6.49237L45.6517 5.84313L44.2972 6.92519L43.3412 6.49237L42.8632 4.32824L42.1461 4.43645L42.2258 5.51851L42.0665 5.73492L41.5884 4.76107L41.7478 3.89542L41.4291 2.38053L40.3934 1.19027H39.6763L39.0389 0L38.4812 0.432824L39.278 1.62309V2.05592L41.4291 6.49237L41.3494 7.89905L41.0307 9.52214L40.1543 10.3878V11.037L41.5088 11.9027L41.8274 12.6601L41.0307 14.716L41.2697 15.1489H41.7478L41.9868 15.5817L42.6242 15.0406L43.6599 12.7683L44.2176 11.037L44.0582 10.6042L44.3769 9.63034H44.9346L45.0143 10.0632L45.4923 9.73855V8.7647L45.8907 8.44008L45.9703 7.46622ZM34.9757 4.32824C34.9757 3.78721 35.135 3.35439 35.4537 3.35439C35.7724 3.35439 35.9318 3.67901 35.9318 4.32824V7.89905C35.9318 8.44008 35.7724 8.8729 35.4537 8.8729C35.135 8.8729 34.9757 8.54828 34.9757 7.89905V4.32824ZM32.4262 2.59695V9.73855L34.0993 11.9027H36.8878L38.5609 9.73855V2.59695L36.8878 0.432824H34.0993L32.4262 2.59695ZM36.4098 26.0777L36.8878 25.8613V25.3202L37.4455 23.5889L37.9235 21.7494L38.5609 20.992L39.1983 21.2084L39.517 21.1002L39.5966 20.6674L39.1983 20.0181L39.3576 19.5853L39.995 18.5032L40.0747 17.7458L40.473 17.5294L40.8714 16.2309L40.7917 15.7981L40.8714 15.3653L40.7917 15.1489L40.8714 14.6078L40.3934 14.3914L39.5966 15.0406V14.4996L39.3576 14.2832L39.1983 14.3914V14.2832L39.278 13.9586L39.3576 13.7422L39.278 13.4176L38.4016 14.3914L38.0032 16.2309L37.4455 16.7719L37.1268 18.5032L34.7367 21.6412L33.94 21.9658L32.9043 24.0218L32.1872 26.2941L32.5856 27.0515L33.3823 26.7269L33.6213 27.1597H34.0993V27.4844L34.896 27.5926L35.6927 27.0515L36.4098 26.0777ZM45.2533 23.2643C45.2533 23.8053 45.094 24.2382 44.7753 24.2382C44.4566 24.2382 44.2972 23.9136 44.2972 23.2643V19.6935C44.2972 19.1525 44.4566 18.7197 44.7753 18.7197C45.094 18.7197 45.2533 19.0443 45.2533 19.6935V23.2643ZM47.8028 25.1038V17.9622L46.1297 15.7981H43.3412L41.6681 17.9622V25.1038L43.3412 27.2679H46.1297L47.8028 25.1038ZM33.6213 27.7008L33.3823 27.809L33.462 28.35L32.9839 29.1074L33.1433 29.2157L34.0993 28.891L34.2587 28.35L34.0993 28.2418L33.6213 27.7008ZM1.91211 27.2679H6.3737V0.324618H4.06324L2.54948 2.38053H0V7.68263H1.91211V27.2679ZM10.915 0.324618L8.12647 4.11183V23.4807L10.915 27.2679H15.9343L18.7228 23.4807V4.11183L15.9343 0.324618H10.915ZM14.2612 21.4248C14.2612 22.074 13.9425 22.5069 13.5441 22.5069H13.2254C12.8271 22.5069 12.5084 22.074 12.5084 21.4248V6.27596C12.5084 5.62672 12.8271 5.19389 13.2254 5.19389H13.5441C13.9425 5.19389 14.2612 5.62672 14.2612 6.27596V21.4248ZM28.2036 27.2679L30.9921 23.4807V4.11183L28.2036 0.324618H23.1844L20.3959 4.11183V23.4807L23.1844 27.2679H28.2036V27.2679ZM24.8574 6.16775C24.8574 5.51851 25.1761 5.08569 25.5745 5.08569H25.8932C26.2915 5.08569 26.6102 5.51851 26.6102 6.16775V21.3166C26.6102 21.9658 26.2915 22.3987 25.8932 22.3987H25.5745C25.1761 22.3987 24.8574 21.9658 24.8574 21.3166V6.16775V6.16775ZM52.9018 0.324618V27.2679H57.3633V17.7458H60.6299L63.4184 13.9586V4.11183L60.6299 0.324618H52.9018V0.324618ZM58.9568 12.0109C58.9568 12.6601 58.6381 12.9847 58.2397 12.9847H57.3633V5.19389H58.2397C58.6381 5.19389 58.9568 5.51851 58.9568 6.16775V12.0109V12.0109ZM64.8524 0.324618V23.4807L67.6409 27.2679H72.6602L75.4487 23.4807V0.324618H70.9871V21.4248C70.9871 22.074 70.6685 22.5069 70.2701 22.5069H69.9514C69.5531 22.5069 69.2344 22.074 69.2344 21.4248V0.324618H64.8524V0.324618ZM87.6384 4.11183L84.8499 0.324618H77.1218V27.2679H81.5834V16.9884H82.4598C82.8582 16.9884 83.1769 17.313 83.1769 17.9622V24.671L83.4159 27.2679H87.8775L87.6384 24.3464V16.9884L85.6467 14.3914L87.6384 11.7945V4.11183V4.11183ZM83.1769 10.8206C83.1769 11.4698 82.8582 11.7945 82.4598 11.7945H81.5834V5.19389H82.4598C82.8582 5.19389 83.1769 5.51851 83.1769 6.16775V10.8206ZM89.3912 27.2679H97.7567V22.074H93.7731V16.2309H97.438V11.037H93.7731V5.51851H97.7567V0.324618H89.3912V27.2679ZM108.911 11.2534H108.672L106.839 0.324618H102.617V27.2679H106.76V15.6899H106.999L109.229 27.2679H113.054V0.324618H108.911V11.2534ZM114.727 27.2679H123.172V22.074H119.188V16.2309H122.853V11.037H119.188V5.51851H123.172V0.324618H114.727V27.2679ZM145.002 5.51851H149.224L145.002 22.5069V27.2679H154.084V22.074H149.941L154.084 5.19389V0.324618H145.002V5.51851ZM155.518 27.2679H163.884V22.074H159.98V16.2309H163.565V11.037H159.98V5.51851H163.884V0.324618H155.518V27.2679ZM178.145 0.324618V27.2679H186.112V22.074H182.527V0.324618H178.145ZM206.667 11.2534H206.428L204.596 0.324618H200.373V27.2679H204.516V15.6899H204.755L206.986 27.2679H210.81V0.324618H206.667V11.2534ZM212.483 27.2679H220.211L223 23.4807V4.11183L220.211 0.324618H212.483V27.2679V27.2679ZM216.945 5.19389H217.901C218.299 5.19389 218.618 5.51851 218.618 6.16775V21.533C218.618 22.1823 218.299 22.5069 217.901 22.5069H216.945V5.19389ZM135.123 12.7683H134.884L133.927 0.324618H130.741L129.785 12.7683H129.546L128.589 0.324618H124.367L126.916 27.2679H130.9L132.095 15.5817H132.254L133.37 27.2679H137.433L139.982 0.324618H136.079L135.123 12.7683ZM168.106 0.324618L164.92 27.2679H169.222L169.62 22.9397H172.249L172.648 27.2679H177.109L173.922 0.324618H168.106V0.324618ZM170.019 18.0704L170.815 9.30573H170.975L171.771 18.0704H170.019ZM190.335 0.324618L187.148 27.2679H191.45L191.849 22.9397H194.478L194.876 27.2679H199.338L196.151 0.324618H190.335V0.324618ZM192.247 18.0704L193.044 9.30573H193.203L194 18.0704H192.247Z" fill="white"/>
</svg>
